<?xml version="1.0" encoding="utf-8"?>
<!-- Generator: Adobe Illustrator 17.0.0, SVG Export Plug-In . SVG Version: 6.00 Build 0)  -->
<!DOCTYPE svg PUBLIC "-//W3C//DTD SVG 1.1//EN" "http://www.w3.org/Graphics/SVG/1.1/DTD/svg11.dtd">
<svg version="1.1" id="Layer_1" xmlns="http://www.w3.org/2000/svg" xmlns:xlink="http://www.w3.org/1999/xlink" x="0px" y="0px"
	 width="318.361px" height="252.426px" viewBox="0 0 318.361 252.426" enable-background="new 0 0 318.361 252.426"
	 xml:space="preserve">
<rect x="18.79" y="28.217" transform="matrix(-0.9736 0.2281 -0.2281 -0.9736 332.4321 213.9844)" fill="#939393" width="270.12" height="195.973"/>
<rect x="33.735" y="33.007" transform="matrix(-0.995 0.0995 -0.0995 -0.995 350.3104 255.027)" fill="#FFFFFF" width="270.12" height="206.485"/>
<rect x="74.618" y="59.419" transform="matrix(-0.995 0.0995 -0.0995 -0.995 398.5042 165.9594)" fill="none" width="240.991" height="66.997"/>
<g enable-background="new    ">
	<path d="M81.303,88.318l-0.617-1.647l-0.299,0.03l2.075,20.748l-4.926,0.493l-3.657-36.569l4.777-0.478l7.13,18.533l0.617,1.647
		l0.298-0.03l-2.075-20.747l4.925-0.493l3.657,36.569l-4.776,0.478L81.303,88.318z"/>
	<path d="M93.53,69.407l12.29-1.229l0.552,5.522l-6.916,0.692l0.96,9.603l4.976-0.498l0.587,5.871l-4.976,0.498l1.005,10.051
		l6.916-0.692l0.552,5.522l-12.29,1.229L93.53,69.407z"/>
	<path d="M120.172,103.678l-4.18,0.418l-8.583-36.077l4.975-0.497l4.041,18.792l0.219,1.185l0.398-0.04l0.03-1.209l0.388-19.235
		l3.881-0.388l4.189,18.777l0.269,1.179l0.398-0.04l-0.02-1.205l0.238-19.22l4.976-0.498l-1.269,37.062l-4.179,0.418l-4.219-17.066
		l-0.513-2.109l-0.199,0.02l-0.084,2.168L120.172,103.678z"/>
	<path d="M143.863,74.274c-0.12-1.194-0.303-2.533-0.756-3.543c-0.448-0.96-1.065-1.602-1.912-1.517
		c-1.388,0.189-1.691,1.676-1.478,3.816c0.125,1.244,0.802,2.482,1.736,3.796c0.936,1.314,2.125,2.653,3.324,4.09
		c1.428,1.716,2.861,3.482,3.99,5.23c1.129,1.745,1.966,3.571,2.165,5.562c0.244,2.438,0.075,4.766-0.901,6.573
		c-0.975,1.806-2.707,3.084-5.642,3.378c-3.433,0.343-5.503-0.756-6.796-2.637c-1.294-1.881-1.806-4.493-2.08-7.229l5.225-1.025
		c0.154,1.542,0.358,3.08,0.871,4.185c0.468,1.16,1.145,1.896,2.289,1.781c1.593-0.159,2.02-1.91,1.786-4.249
		c-0.12-1.194-0.855-2.528-1.795-3.89c-0.518-0.652-1.041-1.354-1.613-2.05c-1.193-1.389-2.508-2.965-3.886-4.688
		c-1.378-1.72-2.462-3.521-3.204-5.408c-0.393-0.916-0.642-1.896-0.742-2.891c-0.199-1.989,0.035-4.174,1.015-5.931
		c0.985-1.706,2.612-3.025,5.145-3.329c3.229-0.373,5.254,0.782,6.493,2.618c1.244,1.885,1.787,4.293,1.991,6.334L143.863,74.274z"
		/>
	<path d="M151.04,63.656l5.374-0.537l3.16,31.595l7.115-0.711l0.498,4.975l-12.489,1.249L151.04,63.656z"/>
	<path d="M165.716,62.189l12.29-1.229l0.553,5.522l-6.917,0.692l0.961,9.603l4.976-0.498l0.587,5.871l-4.976,0.498l1.005,10.051
		l6.916-0.692l0.553,5.522l-12.29,1.229L165.716,62.189z"/>
	<path d="M179.651,66.373l-0.553-5.522l15.523-1.552l0.553,5.522l-5.075,0.507l3.104,31.047l-5.373,0.538l-3.105-31.047
		L179.651,66.373z"/>
	<path d="M195.769,64.761l-0.552-5.522l15.523-1.553l0.552,5.522l-5.075,0.508l3.105,31.047l-5.374,0.537l-3.104-31.047
		L195.769,64.761z"/>
	<path d="M212.828,57.477l12.29-1.229l0.552,5.522l-6.916,0.691l0.961,9.603l4.976-0.498l0.587,5.871l-4.976,0.498l1.005,10.051
		l6.916-0.691l0.553,5.522l-12.29,1.229L212.828,57.477z"/>
	<path d="M241.361,91.559l-4.329-15.145l-1.442,0.144l1.542,15.424l-5.373,0.538l-3.657-36.569l5.373-0.538
		c6.419-0.642,9.519,2.718,10.21,9.633c0.363,3.633-0.254,7.01-2.154,8.608l5.205,17.369L241.361,91.559z M235.092,71.583
		c0.746-0.074,1.731-0.274,2.458-1.05s1.239-2.185,0.98-4.771c-0.259-2.588-1.045-3.916-1.911-4.533
		c-0.865-0.616-1.866-0.567-2.612-0.493L235.092,71.583z"/>
</g>
<line fill="none" stroke="#000000" stroke-width="2" stroke-miterlimit="10" x1="51.843" y1="132.398" x2="159.426" y2="121.635"/>
<line fill="none" stroke="#000000" stroke-width="2" stroke-miterlimit="10" x1="52.839" y1="142.348" x2="160.422" y2="131.586"/>
<line fill="none" stroke="#000000" stroke-width="2" stroke-miterlimit="10" x1="53.834" y1="152.299" x2="161.417" y2="141.536"/>
<line fill="none" stroke="#000000" stroke-width="2" stroke-miterlimit="10" x1="54.83" y1="162.249" x2="162.413" y2="151.486"/>
<line fill="none" stroke="#000000" stroke-width="2" stroke-miterlimit="10" x1="55.825" y1="172.199" x2="163.408" y2="161.437"/>
<line fill="none" stroke="#000000" stroke-width="2" stroke-miterlimit="10" x1="56.82" y1="182.15" x2="164.404" y2="171.387"/>
<line fill="none" stroke="#000000" stroke-width="2" stroke-miterlimit="10" x1="57.816" y1="192.1" x2="165.399" y2="181.337"/>
<line fill="none" stroke="#000000" stroke-width="2" stroke-miterlimit="10" x1="58.811" y1="202.05" x2="166.394" y2="191.288"/>
<line fill="none" stroke="#000000" stroke-width="2" stroke-miterlimit="10" x1="59.807" y1="212.001" x2="167.39" y2="201.238"/>
<line fill="none" stroke="#000000" stroke-width="2" stroke-miterlimit="10" x1="60.802" y1="221.951" x2="168.385" y2="211.188"/>
<line fill="none" stroke="#000000" stroke-width="2" stroke-miterlimit="10" x1="61.798" y1="231.901" x2="169.381" y2="221.139"/>
<line fill="none" stroke="#000000" stroke-width="2" stroke-miterlimit="10" x1="173.237" y1="120.254" x2="280.82" y2="109.491"/>
<line fill="none" stroke="#000000" stroke-width="2" stroke-miterlimit="10" x1="174.233" y1="130.204" x2="281.816" y2="119.441"/>
<line fill="none" stroke="#000000" stroke-width="2" stroke-miterlimit="10" x1="175.228" y1="140.154" x2="282.811" y2="129.392"/>
<line fill="none" stroke="#000000" stroke-width="2" stroke-miterlimit="10" x1="176.224" y1="150.105" x2="283.807" y2="139.342"/>
<line fill="none" stroke="#000000" stroke-width="2" stroke-miterlimit="10" x1="177.219" y1="160.055" x2="284.802" y2="149.292"/>
<line fill="none" stroke="#000000" stroke-width="2" stroke-miterlimit="10" x1="178.215" y1="170.005" x2="285.798" y2="159.243"/>
<line fill="none" stroke="#000000" stroke-width="2" stroke-miterlimit="10" x1="179.21" y1="179.956" x2="286.793" y2="169.193"/>
<line fill="none" stroke="#000000" stroke-width="2" stroke-miterlimit="10" x1="180.205" y1="189.906" x2="287.788" y2="179.143"/>
<line fill="none" stroke="#000000" stroke-width="2" stroke-miterlimit="10" x1="181.201" y1="199.856" x2="288.784" y2="189.094"/>
<line fill="none" stroke="#000000" stroke-width="2" stroke-miterlimit="10" x1="182.196" y1="209.807" x2="289.779" y2="199.044"/>
<line fill="none" stroke="#000000" stroke-width="2" stroke-miterlimit="10" x1="183.192" y1="219.757" x2="290.775" y2="208.994"/>
</svg>
